<svg xmlns="http://www.w3.org/2000/svg" viewBox="0 0 450.717 69.826"><path d="M423.348 0H13.838C6.208 0 0 6.209 0 13.841v42.132C0 63.601 6.208 69.81 13.838 69.81h409.51c7.632 0 13.838-6.209 13.838-13.837V13.841C437.186 6.209 430.98 0 423.348 0zm10.434 55.973c0 5.751-4.679 10.433-10.434 10.433H13.838c-5.754 0-10.435-4.682-10.435-10.433V13.841c0-5.755 4.682-10.436 10.435-10.436h409.51c5.755 0 10.434 4.682 10.434 10.436v42.132z" fill="#fff"/><path d="M350.202 33.928l-1.853-.477c-.23.354-.492.697-.778 1.033l1.957.506.674-1.062zM358.711 38.486l-1.699-1.85-.138 1.725 1.68 1.781zM351.087 25.153l-2.01.772c.137.449.24.879.325 1.298l2.02-.776-.335-1.294zM351.587 28.269l-1.994.264c.035.445.025.869-.005 1.28l1.949-.256.05-1.288zM348.931 32.4l1.891.221.375-1.229-1.833-.214a7.533 7.533 0 0 1-.433 1.222zM339.497 43.173l.911 1.722c.25-.273.511-.54.798-.803l-.903-1.708-.806.789zM348.667 36.014l-1.857-.709c-.204.201-.415.399-.637.594-.074.066-.157.135-.24.206l1.922.729.812-.82zM337.229 43.889l1.478.201.787-.915-1.598-.218c-.239.305-.462.615-.667.932zM341.203 41.617l-1.703-.416c-.273.261-.534.527-.787.801l1.562.383.928-.768zM358.516 40.191l.081 1.134 1.801-1.622-.082-1.131zM362.121 29.241l-.333-2.34c-.208-.196-.411-.397-.63-.582l-.511.791.53 3.519.944-1.388zM212.106 41.033c-2.919.271-4.382 1.183-4.382 3.756 0 2.574 2.117 4.025 5.224 4.025 4.189 0 8.847-2.309 8.847-7.134v-2.364c-1.551.859-3.244 1.073-4.894 1.234l-4.795.483zM130.174 30.789c-4.189 0-7.811 2.841-7.811 8.314 0 5.472 3.622 8.314 7.811 8.314 4.142 0 7.764-2.842 7.764-8.314 0-5.473-3.622-8.314-7.764-8.314zM68.338 41.033c-2.918.271-4.377 1.183-4.377 3.756 0 2.574 2.12 4.025 5.226 4.025 4.187 0 8.846-2.309 8.846-7.134v-2.364c-1.553.859-3.248 1.073-4.894 1.234l-4.801.483zM360.727 41.787l-.115-1.143-1.946 2.36.118 1.145zM360.74 44.385l-.27-.994-1.261 2.355.272.992zM360.424 31.995l-.946-2.954-.711 1.779.965 2.866zM341.203 41.619l.734 1.844c.284-.234.584-.465.889-.69l-.739-1.854-.884.7zM358.731 38.332l2.39-1.49.202-1.342-2.381 1.48.332-1.81-1.433-2.294-.341 1.97 1.676 2.842z" fill="#c4203c"/><path d="M350.417 23.568l.69 1.551 1.865 1.009a9.888 9.888 0 0 0-.597-1.559l-1.975-1.047-.495-.985c-.052.003-.106.005-.158.009l-1.509 1.169c.18.402.339.794.481 1.173l1.698-1.32zM359.296 35.148l2.817-.478.422-1.393-2.811.479zM358.337 48.443l.441 1.032 2.151.571-.523-1.023zM359.988 48.047l.41.866.973-2.928-.411-.868zM358.784 44.188l-1.841-1.258.259 1.39 1.921 1.274zM358.505 41.425l-1.809-1.541.035 1.509 1.886 1.559z" fill="#c4203c"/><path d="M423.348 3.404H13.838c-5.754 0-10.435 4.682-10.435 10.436v42.132c0 5.751 4.682 10.433 10.435 10.433h409.51c5.755 0 10.434-4.682 10.434-10.433V13.841c0-5.755-4.679-10.437-10.434-10.437zM36.292 47.742c3.671 0 6.447-2.256 6.871-5.848h8.565c-1.505 10.19-7.906 12.5-16.142 12.5-9.505 0-15.953-4.615-15.953-15.453s6.683-15.448 16.659-15.448c6.4 0 13.883 2.198 15.436 11.696h-8.565c-.988-3.811-3.529-5.044-6.871-5.044-5.128 0-8.094 3.163-8.094 8.796 0 5.634 2.966 8.801 8.094 8.801zm42.4 5.576c-.282-1.019-.519-2.037-.565-3.056-2.822 3.217-8.094 4.132-11.81 4.132-6.589 0-11.2-2.631-11.2-9.337 0-6.974 5.409-8.475 10.445-8.851l8.8-.696c2.541-.214 3.388-.697 3.388-3.007 0-2.305-1.693-3.431-6.493-3.431-3.529 0-5.363.321-6.541 4.288h-8c.988-8.85 8.142-9.868 14.917-9.868 11.86 0 14.401 4.396 14.401 9.762v14.269c0 2.523.375 4.347.94 5.794h-8.282zm33.977-20.384c-1.505-.482-3.012-.858-4.565-.858-5.646 0-8.33 3.274-8.33 8.851V53.32H91.49V24.565h8v5.634h.096c3.012-4.4 5.364-6.385 10.07-6.385.941 0 2.069.055 3.012.269v8.851zm33.27 20.384h-8.001v-3.592h-.093c-2.683 3.699-6.212 4.668-9.977 4.668-7.858 0-14.072-5.098-14.072-15.131 0-9.333 6.118-15.449 14.072-15.449 4.659 0 8.095 1.717 9.693 4.289h.096V14.371h8.282v38.947zm13.928 0h-8.281V24.565h8.281v28.753zm0-32.295h-8.281v-6.652h8.281v6.652zm34.872 32.295h-8.282V37.012c0-3.971-1.838-5.901-5.555-5.901-3.857 0-7.106 2.198-7.106 8.313v13.895h-8.28V24.565h7.998v4.186h.093c1.507-2.416 5.46-4.937 10.309-4.937 4.281 0 10.823 1.877 10.823 10.352v19.152zm27.714 0c-.279-1.019-.513-2.037-.563-3.056-2.822 3.217-8.096 4.132-11.815 4.132-6.584 0-11.198-2.631-11.198-9.337 0-6.974 5.414-8.475 10.448-8.851l8.8-.696c2.538-.214 3.39-.697 3.39-3.007 0-2.305-1.697-3.431-6.496-3.431-3.526 0-5.365.321-6.54 4.288h-8.001c.988-8.85 8.143-9.868 14.916-9.868 11.861 0 14.4 4.396 14.4 9.762v14.269c0 2.523.379 4.347.945 5.794h-8.286zm21.083 0h-8.28V14.371h8.28v38.947zm19.012 1.076c-9.554 0-14.398-3.167-14.823-9.98h9.13c.379 2.467 1.884 4.079 6.163 4.079 3.765 0 5.979-1.022 5.979-3.113 0-1.608-.709-2.253-4.706-2.896l-7.531-1.18c-5.27-.809-8.283-2.685-8.283-8.157 0-7.777 6.92-9.654 13.792-9.654 11.623 0 14.354 4.343 14.917 9.708h-9.13c-.472-2.948-3.198-3.807-5.6-3.807-2.167 0-5.414.215-5.414 3.057 0 1.34.614 2.251 4.188 2.684l5.741.697c8.425 1.02 11.151 3.86 11.151 8.851.001 8.528-8.371 9.711-15.574 9.711zm26.352.379c-3.404 0-6.128-2.776-6.128-6.127 0-3.4 2.724-6.123 6.128-6.123a6.1 6.1 0 0 1 6.123 6.123c0 3.351-2.724 6.127-6.123 6.127zm26.309-7.031c3.668 0 6.444-2.256 6.87-5.848h8.563c-1.506 10.19-7.904 12.5-16.143 12.5-9.506 0-15.951-4.615-15.951-15.453s6.684-15.448 16.66-15.448c6.399 0 13.878 2.198 15.434 11.696h-8.563c-.988-3.811-3.531-5.044-6.87-5.044-5.132 0-8.096 3.163-8.096 8.796.001 5.634 2.965 8.801 8.096 8.801zm22.035-.282a16.26 16.26 0 0 1-.825-1.418l1.038.183.001-.002-.214 1.237zm29.613-7.158c-.437 4.158-2.425 7.768-5.315 10.351l.343-3.063-.488-.779-.448 3.259.447.714c-3.268 2.851-7.654 4.402-12.306 3.916-4.179-.44-7.806-2.446-10.392-5.361-.004-.342-.001-.691.028-1.057.008-.106.033-.212.049-.317l-1.315-1.747.517-1.052 1.061 1.802c.158-.399.376-.789.638-1.165l-1.004-1.695-.694 1.039-1.332-.205a7.521 7.521 0 0 0-.342.851 16.067 16.067 0 0 1-1.607-8.859c.927-8.88 8.882-15.326 17.761-14.397 8.878.931 15.326 8.885 14.399 17.765zm51.879 13.016h-8.283V36.047c0-3.864-2.681-4.937-5.082-4.937-3.436 0-6.257 2.145-6.257 6.652v15.556h-8.285V36.047c0-3.864-2.681-4.937-4.985-4.937-3.527 0-6.354 2.145-6.354 6.652v15.556h-8.283V24.565h7.999v4.186h.097c1.505-2.416 5.457-4.937 10.306-4.937 4.798 0 7.434 2.145 8.704 5.42 2.307-3.436 5.79-5.42 10.401-5.42 5.082 0 10.022 2.467 10.022 10.03v19.474z" fill="#c4203c"/><path d="M364.131 29.641a16.202 16.202 0 0 0-1.043-1.373l-.036-.009-.817.961 1.896.421zM340.482 40.306l1.581.61.983-.708-1.68-.645c-.296.241-.592.487-.884.743zM360.499 31.889l2.263.841.645-1.185-2.26-.841zM359.507 46.838l-1.974-.91.384 1.189 2.05.918zM344.104 37.488l1.944.735.968-.718-1.942-.732c-.299.227-.625.464-.97.715zM345.084 38.894l.648 1.859c.313-.211.624-.42.928-.627l-.663-1.897-.913.665zM343.053 40.232l.611 1.931c.308-.217.616-.432.932-.644l-.612-1.926-.931.639zM342.303 38.828l1.725.74.998-.67-1.794-.77c-.302.226-.613.459-.929.7zM347.041 37.563l.791 1.726c.303-.228.599-.456.875-.693l-.819-1.781-.847.748zM348.687 36.029l.771 1.877c.291-.283.563-.573.818-.869l-.811-1.99-.778.982zM351.398 26.5l.193 1.69 1.787 1.629c.033-.523.024-1.041-.015-1.553l-1.965-1.766zM350.211 33.926l1.236 1.553c.23-.358.44-.719.629-1.085l-1.274-1.578-.591 1.11zM351.28 31.262l1.429 1.703c.176-.483.315-.969.422-1.455l-1.59-1.872-.261 1.624z" fill="#c4203c"/><path d="M288.9 42.523a6.101 6.101 0 0 0-6.128 6.123c0 3.351 2.724 6.127 6.128 6.127 3.399 0 6.123-2.776 6.123-6.127a6.1 6.1 0 0 0-6.123-6.123z" fill="#ccc"/><path d="M36.292 30.146c3.341 0 5.882 1.233 6.871 5.044h8.565c-1.553-9.498-9.036-11.696-15.436-11.696-9.977 0-16.659 4.61-16.659 15.448 0 10.838 6.448 15.453 15.953 15.453 8.236 0 14.637-2.31 16.142-12.5h-8.565c-.423 3.592-3.2 5.848-6.871 5.848-5.128 0-8.094-3.167-8.094-8.801 0-5.633 2.966-8.796 8.094-8.796zM86.033 33.255c0-5.365-2.541-9.762-14.401-9.762-6.775 0-13.929 1.018-14.917 9.868h8c1.178-3.967 3.012-4.288 6.541-4.288 4.8 0 6.493 1.126 6.493 3.431 0 2.31-.846 2.793-3.388 3.007l-8.8.696c-5.036.376-10.445 1.877-10.445 8.851 0 6.706 4.611 9.337 11.2 9.337 3.717 0 8.988-.915 11.81-4.132.046 1.019.284 2.037.565 3.056h8.281c-.565-1.447-.94-3.271-.94-5.794v-14.27zm-8 8.426c0 4.825-4.659 7.134-8.846 7.134-3.106 0-5.226-1.451-5.226-4.025 0-2.573 1.459-3.484 4.377-3.756l4.801-.482c1.646-.161 3.341-.375 4.894-1.234v2.363zM99.586 30.199h-.096v-5.634h-8v28.753h8.284V40.926c0-5.576 2.683-8.851 8.33-8.851 1.553 0 3.061.376 4.565.858v-8.851c-.943-.214-2.071-.269-3.012-.269-4.707.001-7.058 1.986-10.071 6.386zM137.657 28.103h-.096c-1.598-2.572-5.034-4.289-9.693-4.289-7.954 0-14.072 6.116-14.072 15.449 0 10.033 6.214 15.131 14.072 15.131 3.765 0 7.294-.969 9.977-4.668h.093v3.592h8.001V14.371h-8.282v13.732zm-7.483 19.314c-4.189 0-7.811-2.842-7.811-8.314 0-5.474 3.622-8.314 7.811-8.314 4.142 0 7.764 2.841 7.764 8.314 0 5.472-3.622 8.314-7.764 8.314zM151.586 14.371h8.281v6.652h-8.281zM151.586 24.565h8.281v28.753h-8.281zM183.916 23.814c-4.849 0-8.801 2.521-10.309 4.937h-.093v-4.186h-7.998v28.753h8.28V39.424c0-6.115 3.249-8.313 7.106-8.313 3.717 0 5.555 1.931 5.555 5.901v16.307h8.282V34.166c0-8.475-6.542-10.352-10.823-10.352zM229.794 33.255c0-5.365-2.539-9.762-14.4-9.762-6.773 0-13.928 1.018-14.916 9.868h8.001c1.175-3.967 3.014-4.288 6.54-4.288 4.799 0 6.496 1.126 6.496 3.431 0 2.31-.852 2.793-3.39 3.007l-8.8.696c-5.033.376-10.448 1.877-10.448 8.851 0 6.706 4.614 9.337 11.198 9.337 3.719 0 8.992-.915 11.815-4.132.05 1.019.283 2.037.563 3.056h8.287c-.566-1.447-.945-3.271-.945-5.794v-14.27zm-8 8.426c0 4.825-4.657 7.134-8.847 7.134-3.106 0-5.224-1.451-5.224-4.025 0-2.573 1.463-3.484 4.382-3.756l4.794-.482c1.65-.161 3.344-.375 4.894-1.234v2.363zM235.255 14.371h8.28v38.947h-8.28zM266.971 35.832l-5.741-.697c-3.574-.433-4.188-1.344-4.188-2.684 0-2.842 3.247-3.057 5.414-3.057 2.401 0 5.128.858 5.6 3.807h9.13c-.563-5.365-3.294-9.708-14.917-9.708-6.872 0-13.792 1.877-13.792 9.654 0 5.473 3.014 7.349 8.283 8.157l7.531 1.18c3.997.643 4.706 1.287 4.706 2.896 0 2.091-2.214 3.113-5.979 3.113-4.279 0-5.784-1.612-6.163-4.079h-9.13c.425 6.814 5.27 9.98 14.823 9.98 7.203 0 15.574-1.183 15.574-9.712.001-4.99-2.726-7.83-11.151-8.85z" fill="#fff"/><path d="M315.209 30.146c3.339 0 5.882 1.233 6.87 5.044h8.563c-1.556-9.498-9.034-11.696-15.434-11.696-9.977 0-16.66 4.61-16.66 15.448 0 10.838 6.445 15.453 15.951 15.453 8.238 0 14.637-2.31 16.143-12.5h-8.563c-.426 3.592-3.202 5.848-6.87 5.848-5.132 0-8.096-3.167-8.096-8.801.001-5.633 2.965-8.796 8.096-8.796zM408.713 23.814c-4.611 0-8.095 1.984-10.401 5.42-1.271-3.275-3.906-5.42-8.704-5.42-4.849 0-8.801 2.521-10.306 4.937h-.097v-4.186h-7.999v28.753h8.283V37.763c0-4.508 2.826-6.652 6.354-6.652 2.305 0 4.985 1.072 4.985 4.937v17.271h8.285V37.763c0-4.508 2.821-6.652 6.257-6.652 2.401 0 5.082 1.072 5.082 4.937v17.271h8.283V33.845c.001-7.564-4.94-10.031-10.022-10.031z" fill="#ccc"/><path fill="#fff" d="M439.409 65.625h1.616v4.201h1.409v-4.201h1.616V64.41h-4.641zM448.64 64.41l-.932 3.612h-.016l-.932-3.612h-2.081v5.416h1.33v-4.108h.013l1.14 4.108h1.076l1.139-4.108h.013v4.108h1.327V64.41zM336.419 46.042c.252.487.526.961.825 1.418l.214-1.237-.001.002-1.038-.183z"/><path d="M352.455 22.536c-8.879-.929-16.834 5.518-17.761 14.397a16.067 16.067 0 0 0 1.607 8.859c.097-.287.208-.572.342-.851l1.332.205.694-1.039 1.004 1.695a5.818 5.818 0 0 0-.638 1.165l-1.061-1.802-.517 1.052 1.315 1.747c-.016.105-.041.211-.049.317-.028.366-.032.714-.028 1.057 2.586 2.914 6.213 4.921 10.392 5.361 4.652.486 9.039-1.065 12.306-3.916l-.447-.714.448-3.259.488.779-.343 3.063c2.89-2.583 4.878-6.193 5.315-10.351.93-8.879-5.518-16.833-14.399-17.765zm8.703 3.783c.219.185.422.386.63.582l.333 2.34-.943 1.389-.53-3.519.51-.792zm-1.68 2.722l.946 2.954-.692 1.69-.965-2.865.711-1.779zm-1.637 3.835l1.433 2.294-.332 1.811 2.381-1.48-.202 1.342-2.39 1.49.445-.644-1.677-2.842.342-1.971zm2.771 7.768l.115 1.143-1.943 2.362-.118-1.146 1.946-2.359zm-2.015.681l-.081-1.134 1.8-1.619.082 1.131-1.801 1.622zm1.873 2.066l.27.994-1.259 2.354-.271-.992 1.26-2.356zm-3.458-6.755l1.699 1.85-.157 1.655-1.681-1.78.139-1.725zm-7.263-14.091c.052-.004.106-.006.158-.009l.495.985 1.975 1.047c.242.5.44 1.023.597 1.559l-1.865-1.009-.69-1.551-1.696 1.318a21.79 21.79 0 0 0-.481-1.173l1.507-1.167zm-.161 7.268c.03-.411.04-.835.005-1.28l1.994-.264-.05 1.288-1.949.256zm1.609 1.579l-.375 1.229-1.891-.221c.18-.391.32-.799.433-1.223l1.833.215zm-1.794-4.168a13.83 13.83 0 0 0-.325-1.298l2.01-.772.335 1.294-2.02.776zm-1.054 6.227l1.853.477-.674 1.063-1.957-.506c.286-.337.548-.68.778-1.034zm-2.176 2.447c.222-.194.433-.393.637-.594l1.857.709-.813.82-1.922-.729c.084-.071.167-.139.241-.206zm-6.673 5.303l1.703.416-.929.768-1.562-.383a18 18 0 0 1 .788-.801zm-.793 2.889l-1.478-.201c.205-.316.428-.627.667-.932l1.598.218-.787.915zm1.701.804l-.911-1.722.806-.789.903 1.708c-.288.263-.548.53-.798.803zm1.529-1.431l-.734-1.844.884-.7.739 1.854c-.305.225-.605.456-.889.69zm.126-2.547l-1.581-.61c.292-.256.588-.502.885-.742l1.68.645-.984.707zm1.602 1.247l-.611-1.931.931-.64.612 1.926a56.43 56.43 0 0 0-.932.645zm.363-2.595l-1.725-.74c.315-.241.627-.475.929-.699l1.794.77-.998.669zm1.705 1.186l-.648-1.859.913-.664.663 1.897-.928.626zm.315-2.53l-1.944-.735c.345-.251.671-.488.97-.715l1.942.732-.968.718zm1.784 1.065l-.791-1.726.847-.749.819 1.781c-.277.238-.573.466-.875.694zm1.626-1.383l-.771-1.877.778-.982.811 1.99c-.256.296-.527.586-.818.869zm1.99-2.427l-1.236-1.553.591-1.11 1.274 1.578c-.189.366-.399.726-.629 1.085zm1.26-2.514l-1.429-1.703.261-1.624 1.59 1.872c-.106.486-.246.972-.422 1.455zm.67-3.147l-1.787-1.629-.193-1.69 1.966 1.766c.039.512.048 1.03.014 1.553zm3.318 10.066l1.81 1.541.111 1.527-1.886-1.56-.035-1.508zm.247 3.046l1.841 1.258.339 1.406-1.921-1.273-.259-1.391zm.59 2.998l1.975.91.46 1.197-2.051-.918-.384-1.189zm1.245 3.547l-.44-1.031 2.068.58.523 1.022-2.151-.571zm1.62-.562l-.41-.866.973-2.93.41.868-.973 2.928zm1.715-14.243l-2.816.479.428-1.393 2.811-.479-.423 1.393zm.649-1.94l-2.264-.842.648-1.185 2.26.841-.644 1.186zm.326-4.462c.371.439.72.896 1.043 1.373l-1.896-.421.817-.961.036.009z" fill="#fff"/></svg>